<?xml version="1.0" encoding="utf-8"?>
<!-- Generator: Adobe Illustrator 24.0.1, SVG Export Plug-In . SVG Version: 6.00 Build 0)  -->
<svg version="1.1" id="Layer_1" xmlns="http://www.w3.org/2000/svg" xmlns:xlink="http://www.w3.org/1999/xlink" x="0px" y="0px"
	 viewBox="0 0 512 512" style="enable-background:new 0 0 512 512;" xml:space="preserve">
<style type="text/css">
	.st0{fill:#1787AA;}
	.st1{fill:#ADD4E0;}
	.st2{fill:#9ADFF4;}
	.st3{fill:#3F9BBF;}
	.st4{fill:#CFF5FF;}
	.st5{fill:#B8F0FF;}
	.st6{fill:#88E0F7;}
	.st7{fill:#FFF6DB;}
</style>
<g>
	<g>
		<path class="st0" d="M228.6,32.1h54.9v72.3h-54.9V32.1z"/>
		<path class="st1" d="M398.1,288.2c0-78-62.9-141.3-140.8-141.9c-77.4-0.6-141.7,63.4-143.2,140.8c-1.2,62.4,11.6,128.3,20.5,191.4
			c2.7,19.2,19.1,33.5,38.5,33.5h166c19.5,0,35.9-14.4,38.6-33.7C386.1,415.4,398.1,350.6,398.1,288.2z"/>
		<path class="st2" d="M257.3,146.3c-5.6,0-11,0.3-16.4,0.9c71.1,7.8,126.3,68,126.3,141.1c0,62.4-11.9,127.2-20.5,190.1
			c-2.6,19.3-19.1,33.7-38.6,33.7H339c19.5,0,35.9-14.4,38.6-33.7c8.6-62.9,20.5-127.7,20.5-190.1
			C398.1,210.3,335.1,147,257.3,146.3L257.3,146.3z"/>
		<path class="st3" d="M302.1,161.5h-92.2c-9.9,0-18-8.1-18-18v-29.6c0-9.9,8.1-18,18-18h92.2c9.9,0,18,8.1,18,18v29.6
			C320.1,153.5,312,161.5,302.1,161.5z"/>
		<path class="st3" d="M304.7,39.7H172.1c0-12,8.7-22.2,20.6-24L292,0.3c14.7-2.3,28,9.1,28,24C320.1,32.8,313.2,39.7,304.7,39.7z"
			/>
		<g>
			<path class="st4" d="M136.8,212.6c-13.9,21.7-22.3,47.3-22.8,74.6c-1.2,62.4,11.6,128.3,20.5,191.4c2.7,19.2,19.1,33.5,38.5,33.5
				h166c19.5,0,35.9-14.4,38.6-33.7c8.6-62.9,20.5-127.7,20.5-190.1c0-27.8-8-53.8-21.8-75.7L136.8,212.6z"/>
		</g>
		<path class="st5" d="M376.2,212.6h-30.9c13.8,21.9,21.8,47.8,21.8,75.7c0,62.4-11.9,127.2-20.5,190.1
			c-2.6,19.3-19.1,33.7-38.6,33.7H339c19.5,0,35.9-14.4,38.6-33.7c8.6-62.9,20.5-127.7,20.5-190.1
			C398.1,260.4,390.1,234.5,376.2,212.6L376.2,212.6z"/>
		<g>
			<path class="st5" d="M0,0"/>
		</g>
		<g>
			<path class="st6" d="M152,277.1c9.9,0,10-15.5,0-15.5C142,261.7,142,277.1,152,277.1z"/>
		</g>
		<g>
			<path class="st6" d="M201.4,249.3c9.9,0,10-15.5,0-15.5C191.5,233.9,191.4,249.3,201.4,249.3z"/>
		</g>
		<g>
			<path class="st6" d="M357,253.4c9.9,0,10-15.5,0-15.5C347,238,347,253.4,357,253.4z"/>
		</g>
		<g>
			<path class="st6" d="M289,489.3c9.9,0,10-15.5,0-15.5C279,473.9,279,489.3,289,489.3z"/>
		</g>
		<g>
			<path class="st6" d="M342.5,455.3c9.9,0,10-15.5,0-15.5C332.6,439.9,332.6,455.3,342.5,455.3z"/>
		</g>
		<g>
			<path class="st6" d="M180.6,470.9c9.9,0,10-15.5,0-15.5C170.7,455.4,170.7,470.9,180.6,470.9z"/>
		</g>
	</g>
	<g>
		<circle class="st3" cx="256" cy="353.4" r="92.2"/>
		<path class="st0" d="M256,261.2c-5.3,0-10.4,0.4-15.5,1.3c43.6,7.4,76.7,45.3,76.7,90.9s-33.2,83.6-76.7,90.9
			c5,0.8,10.2,1.3,15.5,1.3c50.9,0,92.2-41.3,92.2-92.2S306.9,261.2,256,261.2z"/>
		<path class="st7" d="M303.7,336.8h-31.2v-31.1h-33.1v31.1h-31.2v33h31.2v31.1h33.1v-31.1h31.2V336.8z"/>
	</g>
</g>
</svg>
