<?xml version="1.0" encoding="utf-8"?>
<!-- Generator: Adobe Illustrator 24.0.1, SVG Export Plug-In . SVG Version: 6.00 Build 0)  -->
<svg version="1.1" id="Layer_1" xmlns="http://www.w3.org/2000/svg" xmlns:xlink="http://www.w3.org/1999/xlink" x="0px" y="0px"
	 viewBox="0 0 3000 2000" style="enable-background:new 0 0 3000 2000;" xml:space="preserve">
<style type="text/css">
	.st0{fill:#1F67A6;}
	.st1{fill:#3F9BBF;}
</style>
<g>
	<path class="st0" d="M1777.31,1321.38h400.66c21.4,0,38.75-17.35,38.75-38.75V882.51c0-21.4-17.35-38.75-38.75-38.75l-430.15,0.5
		l-8.72-0.5V404.88c0-21.4-17.35-38.75-38.75-38.75h-400.12c-21.4,0-38.75,17.35-38.75,38.75v400.66"/>
	<path class="st1" d="M1223.27,843.75H822.61c-21.4,0-38.75,17.35-38.75,38.75v400.12c0,21.4,17.35,38.75,38.75,38.75h422.81h16.06
		v438.87c0,21.4,17.35,38.75,38.75,38.75h400.12c21.4,0,38.75-17.35,38.75-38.75v-400.66"/>
</g>
</svg>
