<?xml version="1.0" encoding="utf-8"?>
<!-- Generator: Adobe Illustrator 24.0.1, SVG Export Plug-In . SVG Version: 6.00 Build 0)  -->
<svg version="1.1" id="Layer_1" xmlns="http://www.w3.org/2000/svg" xmlns:xlink="http://www.w3.org/1999/xlink" x="0px" y="0px"
	 viewBox="0 0 512 512" style="enable-background:new 0 0 512 512;" xml:space="preserve">
<style type="text/css">
	.st0{fill:#3F9BBF;}
	.st1{fill:#1787AA;}
	.st2{fill:#C7C7C5;}
	.st3{fill:#80C9E0;}
</style>
<path class="st0" d="M72,296l224-224l144,144L216,440L72,296z"/>
<path class="st1" d="M440,216L216,440l-93.6-93.6c92.7-39.8,189.6-99.6,262.1-185.9L440,216z"/>
<path class="st2" d="M429.7,205.7l-11.3-11.3l40.8-40.8c28.1-27.5,28.6-72.6,1.1-100.7c-27.5-28.1-72.6-28.6-100.7-1.1
	c-0.4,0.4-0.8,0.8-1.1,1.1l-40.8,40.8l-11.3-11.3l40.8-40.8c34.4-33.7,89.6-33.3,123.3,1.1c33.3,33.9,33.3,88.3,0,122.2L429.7,205.7
	z"/>
<path class="st2" d="M103.2,496C55,496,16,457,16,408.8c0-23.1,9.2-45.3,25.5-61.6l40.8-40.8l11.3,11.3l-40.8,40.8
	c-27.5,28.1-27,73.2,1.1,100.7c27.7,27,71.9,27,99.5,0l40.8-40.8l11.3,11.3l-40.8,40.8C148.5,486.9,126.3,496.1,103.2,496L103.2,496
	z"/>
<g>
	<path class="st3" d="M138.3,362.3l224-224l11.3,11.3l-224,224L138.3,362.3z"/>
	<path class="st3" d="M170.3,394.3l224-224l11.3,11.3l-224,224L170.3,394.3z"/>
	<path class="st3" d="M106.3,330.3l224-224l11.3,11.3l-224,224L106.3,330.3z"/>
</g>
</svg>
