<?xml version="1.0" encoding="utf-8"?>
<!-- Generator: Adobe Illustrator 24.0.1, SVG Export Plug-In . SVG Version: 6.00 Build 0)  -->
<svg version="1.1" id="Capa_1" xmlns="http://www.w3.org/2000/svg" xmlns:xlink="http://www.w3.org/1999/xlink" x="0px" y="0px"
	 viewBox="0 0 512 512" style="enable-background:new 0 0 512 512;" xml:space="preserve">
<style type="text/css">
	.st0{fill-rule:evenodd;clip-rule:evenodd;fill:#1F67A6;}
	.st1{fill:#3F9BBF;}
</style>
<g>
	<g>
		<path class="st0" d="M120.9,436.1C178.7,282.5,283,180,436.4,121.2L380,64.7l0,0c-114,85.7-161.7,47.2-214.7,100.5
			c-53.3,53-14.8,100.7-100.5,214.7L120.9,436.1z"/>
	</g>
	<g>
		<path class="st0" d="M181.7,477.1c64.3-133.6,162-229.9,295.5-295c-7.5-20.2-18.7-38.8-34.5-54.6l-6.3-6.3
			C283,180,178.7,282.5,120.9,436.1l6.6,6.6C143.1,458.4,161.6,469.6,181.7,477.1L181.7,477.1z"/>
	</g>
	<g>
		<path class="st0" d="M268,489.6c54.5-93.4,128-166.2,221.6-221c1.1-29.6-2.4-59.5-12.4-86.6C343.7,247.1,246,343.5,181.7,477
			C208.7,487.2,238.5,490.7,268,489.6L268,489.6z"/>
	</g>
	<g>
		<path class="st0" d="M268,489.6c70.1-2.5,138.8-30.5,164.9-56.6s54-94.5,56.6-164.4C396.1,323.4,322.6,396.3,268,489.6L268,489.6z
			"/>
	</g>
	<g>
		<path class="st1" d="M508.3,90.1c7.9-24.8,3.2-48.2-13.1-66.1C477.6,4.9,448.7-4,423.3,1.7c-23.9,5.4-41.3,22.2-49,47.3l-3,9.7
			c-59.1,43.8-99.9,53.2-132.7,60.7c-29.2,6.7-54.4,12.5-80.5,38.7c-26.3,26.1-32.1,51.3-38.8,80.5c-7.5,32.8-16.9,73.6-60.8,132.7
			l-9.6,2.9c-25,7.7-41.8,25.1-47.2,49C-4,448.7,4.9,477.6,24,495.1C36.2,506.3,51,512,67,512c7.5,0,15.2-1.2,23.1-3.7l79.5-25.3
			h0.1c25.7,11.2,55.6,16.9,88.5,16.9c12.5,0,25.5-0.8,38.8-2.5c57.9-7.3,116.7-30.9,143.1-57.2c26.4-26.4,49.9-85.2,57.2-143.1
			c6.1-48.3,1-91.8-14.4-127.3v-0.1L508.3,90.1z M138.9,243.1c6.5-28.3,11.2-48.7,33.4-70.8c22-22.2,42.5-26.9,70.8-33.4
			c33.9-7.8,75.7-17.4,135.9-61l39.7,39.7c-71.8,29.4-133.3,69.3-182.9,118.5c-50,49.7-89.8,110.9-118.6,182.2L77.9,379
			C121.5,318.8,131.1,276.9,138.9,243.1L138.9,243.1z M84,489.2c-22.6,7.2-37.8-0.8-46.5-8.8c-14-12.9-20.6-34-16.3-52.7
			c2.7-11.8,10.7-27.2,33.6-34.3l7-2.2l58.5,58.5c7.5,7.5,15.7,14.1,24.7,20L84,489.2z M477.5,294.5
			c-7.6,60.1-31.7,111.6-51.5,131.5c-19.8,19.8-71.4,43.9-131.4,51.5c-2.5,0.3-5.2,0.6-7.9,0.9c49.1-78.6,112.1-141.4,191.8-191.2
			C478,289.7,477.8,292.1,477.5,294.5L477.5,294.5z M479.7,262.9c-45.5,27.2-86.7,59-122.6,94.7c-36.1,35.9-68,77-94.9,122.1
			c-20.3,0.3-43.6-1.6-66.6-8.5c23.8-47.3,52.3-90.3,84.9-128.1c3.6-4.2,3.1-10.5-1-14.1c-4.2-3.6-10.5-3.1-14.1,1
			c-34.1,39.6-63.9,84.7-88.6,134.2c-15.1-6.7-29.6-15.9-42.3-28.6l-2-2c56-144.4,154.7-242.9,301.5-300.8l1.6,1.6
			c12.8,12.8,22.1,27.4,28.8,42.7c-49.7,25-94.8,54.8-134.2,88.4c-4.2,3.6-4.7,9.9-1.1,14.1c2,2.3,4.8,3.5,7.6,3.5
			c2.3,0,4.6-0.8,6.5-2.4c37.6-32.2,80.7-60.6,128.1-84.7C478.2,219.1,480.1,242.6,479.7,262.9L479.7,262.9z M469.8,145.1
			c-5.8-9-12.5-17.2-20-24.7l-6.1-6.1l0,0l-52.4-52.4l2.1-7c7-22.9,22.5-30.9,34.3-33.6c18.7-4.2,39.9,2.3,52.7,16.3
			c8,8.7,16,23.9,8.8,46.5L469.8,145.1z"/>
	</g>
</g>
</svg>
